<svg width="20" height="20" viewBox="0 0 20 20" fill="none" xmlns="http://www.w3.org/2000/svg">
<path d="M2.96149 14.2392V16.2052H17.0385V14.2392H2.96149ZM2.96149 4.87049H5.40624C5.34011 4.74549 5.28539 4.58978 5.24205 4.40336C5.19873 4.21693 5.17707 4.04625 5.17707 3.89132C5.17707 3.22217 5.41205 2.65339 5.88201 2.18499C6.35197 1.71657 6.91445 1.48236 7.56947 1.48236C8.00152 1.48236 8.40117 1.59083 8.76841 1.80778C9.13566 2.02471 9.42511 2.3015 9.63676 2.63815L10.0104 3.21469L10.3841 2.63815C10.6096 2.28761 10.8987 2.00735 11.2514 1.79736C11.6041 1.58736 11.9823 1.48236 12.3859 1.48236C13.0684 1.48236 13.6452 1.71355 14.1163 2.17592C14.5874 2.63828 14.8229 3.21315 14.8229 3.90051C14.8229 4.04716 14.8055 4.19771 14.7708 4.35215C14.7361 4.5066 14.684 4.67938 14.6146 4.87049H17.0385C17.4232 4.87049 17.7567 5.01171 18.0392 5.29417C18.3216 5.57662 18.4629 5.91018 18.4629 6.29486V16.2052C18.4629 16.5885 18.3216 16.9209 18.0392 17.2024C17.7567 17.4838 17.4232 17.6246 17.0385 17.6246H2.96149C2.57817 17.6246 2.24577 17.4838 1.9643 17.2024C1.68284 16.9209 1.54211 16.5885 1.54211 16.2052V6.29486C1.54211 5.91018 1.68284 5.57662 1.9643 5.29417C2.24577 5.01171 2.57817 4.87049 2.96149 4.87049ZM2.96149 11.8954H17.0385V6.29486H12.0004L14.014 9.11099L12.9592 9.89586L9.99999 5.7609L7.04076 9.89586L5.98595 9.11099L8.00949 6.29486H2.96149V11.8954ZM7.59103 4.99549C7.89659 4.99549 8.157 4.88785 8.37228 4.67257C8.58756 4.45729 8.6952 4.19688 8.6952 3.89132C8.6952 3.5891 8.58756 3.32951 8.37228 3.11257C8.157 2.89562 7.89659 2.78715 7.59103 2.78715C7.28548 2.78715 7.02506 2.89562 6.80978 3.11257C6.5945 3.32951 6.48686 3.5891 6.48686 3.89132C6.48686 4.19688 6.5945 4.45729 6.80978 4.67257C7.02506 4.88785 7.28548 4.99549 7.59103 4.99549ZM12.3881 4.99549C12.7069 4.99549 12.9741 4.88785 13.1897 4.67257C13.4053 4.45729 13.5131 4.19688 13.5131 3.89132C13.5131 3.5891 13.4053 3.32951 13.1897 3.11257C12.9741 2.89562 12.7069 2.78715 12.3881 2.78715C12.0964 2.78715 11.843 2.89562 11.6277 3.11257C11.4124 3.32951 11.3048 3.5891 11.3048 3.89132C11.3048 4.19688 11.4124 4.45729 11.6277 4.67257C11.843 4.88785 12.0964 4.99549 12.3881 4.99549Z" fill="#9F56D4"/>
</svg>
